[img]http://img337.imageshack.us/img337/4421/36231145.jpg[/img]
[code]
General
Complete name                    : D:\The Dolphin Story Of A Dreamer DVDRip Xvid AC3-Freebee269\The Dolphin Story Of A Dreamer DVDRip Xvid AC3-Freebee269.avi
Format                           : AVI
Format/Info                      : Audio Video Interleave
Format profile                   : OpenDML
File size                        : 1.68 GiB
Duration                         : 1h 28mn
Overall bit rate                 : 2 723 Kbps
Writing application              : AVI-Mux GUI 1.17.8.3, Feb 16 201019:42:50

Video
ID                               : 0
Format                           : MPEG-4 Visual
Format profile                   : Advanced Simple@L5
Format settings, BVOP            : Yes
Format settings, QPel            : No
Format settings, GMC             : No warppoints
Format settings, Matrix          : Default (MPEG)
Codec ID                         : XVID
Codec ID/Hint                    : XviD
Duration                         : 1h 28mn
Bit rate                         : 1 819 Kbps
Width                            : 720 pixels
Height                           : 384 pixels
Display aspect ratio             : 1.875
Frame rate                       : 23.976 fps
Color space                      : YUV
Chroma subsampling               : 4:2:0
Bit depth                        : 8 bits
Scan type                        : Progressive
Compression mode                 : Lossy
Bits/(Pixel*Frame)               : 0.274
Stream size                      : 1.12 GiB (67%)
Writing library                  : XviD 1.2.1 (UTC 2008-12-04)

Audio #1
ID                               : 1
Format                           : AC-3
Format/Info                      : Audio Coding 3
Mode extension                   : CM (complete main)
Codec ID                         : 2000
Duration                         : 1h 28mn
Bit rate mode                    : Constant
Bit rate                         : 448 Kbps
Channel(s)                       : 6 channels
Channel positions                : Front: L C R, Side: L R, LFE
Sampling rate                    : 48.0 KHz
Bit depth                        : 16 bits
Compression mode                 : Lossy
Stream size                      : 282 MiB (16%)
Alignment                        : Aligned on interleaves
Interleave, duration             : 64 ms (1.53 video frames)
Interleave, preload duration     : 192 ms
Title                            : 5.1ch 448kbps english

Audio #2
ID                               : 2
Format                           : AC-3
Format/Info                      : Audio Coding 3
Mode extension                   : CM (complete main)
Codec ID                         : 2000
Duration                         : 1h 28mn
Bit rate mode                    : Constant
Bit rate                         : 448 Kbps
Channel(s)                       : 6 channels
Channel positions                : Front: L C R, Side: L R, LFE
Sampling rate                    : 48.0 KHz
Bit depth                        : 16 bits
Compression mode                 : Lossy
Stream size                      : 282 MiB (16%)
Alignment                        : Aligned on interleaves
Interleave, duration             : 64 ms (1.53 video frames)
Interleave, preload duration     : 192 ms
Title                            : 5.1ch 448kbps spanish

Actors: Robbie Daymond, Michael Ferreri, Steven Booth, Corey J. Holtzberg
Directors: Eduardo Schuldt
Writers: Michael Wogh, Judy Kellem
Producers: Sergio Bambaren
Language: English, Spanish
Subtitles: English, French, Spanish
Rated: PG (Parental Guidance Suggested)
Studio: 20th Century Fox
DVD Release Date: December 7, 2010
Run Time: 88 minutes

Sample Included: Yes
Encoder: Freebee269

 
http://www.imdb.com/title/tt1206541/
 
http://www.amazon.com/Dolphin-Story-Dreamer-Robbie-Daymond/dp/B00475B0H6/ref=sr_1_1?ie=UTF8&s=dvd&qid=1291914163&sr=1-1

Plot:
The amazing story of Daniel, a dolphin who abandons the safety of his pod to explore the ocean and discover the true purpose of his life. 
[/code]
Screens:

[img]http://img251.imageshack.us/img251/1719/63089333.png[/img]
[img]http://img189.imageshack.us/img189/4817/40110853.png[/img]
[img]http://img571.imageshack.us/img571/8633/97125480.png[/img]
